<?xml version="1.0" encoding="UTF-8" standalone="no"?>
<svg
   version="1.1"
   viewBox="-10 0 948 938"
   id="svg23"
   xmlns="http://www.w3.org/2000/svg"
   xmlns:svg="http://www.w3.org/2000/svg">
  <defs
     id="defs27" />
  <g
     transform="matrix(1 0 0 -1 0 750)"
     id="g21">
    <path
       fill="currentColor"
       d="M409 574q55 0 82 -10q11 -9 11 -19q0 -5 -3 -10q-5 -14 -28 -14q-9 0 -19 -17q-71 -109 -71 -274q0 -40 2 -61q0 -14 4 -18q1 0 7 9q35 36 57 88l47 81l46 77q7 10 16 9q5 -5 5 -9t-3 -9q-42 -101 -104 -214q-25 -56 -45 -104q-5 -11 -14 -11q-7 0 -13 6q-34 32 -29 54 q3 18 3 52q-2 30 -2 45q0 88 30 190q3 20 12 47q9 34 13 57q2 4 2 10t-4 7q-16 10 -44 15q-7 7 -7 14q0 8 9 8q14 1 40 1z"
       id="path19"
       style="fill-rule:evenodd;fill:none;stroke:#db0000;stroke-opacity:1;stroke-width:2.1;stroke-miterlimit:4;stroke-dasharray:none" />
  </g>
  <path
     style="fill:none;stroke:#000000;stroke-width:1px;stroke-linecap:butt;stroke-linejoin:miter;stroke-opacity:1"
     d="M 343.61111,183.62963 526,193.55556 473.88889,212.16667 439.14815,222.09259 385.7963,374.7037 365.94444,512.42593 368.42593,635.25926 392,661.31481 560,335 v 0"
     id="path1463" />
</svg>
