<?xml version="1.0" encoding="UTF-8" standalone="no"?>
<svg
   version="1.1"
   viewBox="-10 0 948 938"
   id="svg1512"
   xmlns="http://www.w3.org/2000/svg"
   xmlns:svg="http://www.w3.org/2000/svg">
  <defs
     id="defs1516" />
  <g
     transform="matrix(1 0 0 -1 0 750)"
     id="g1510">
    <path
       fill="currentColor"
       d="M343 497q-80 -188 -185 -319q-19 -23 -38.5 -41t-10.5 -1q76 122 153 266.5t124 263.5l10 26l11 26q-8 -5 -40 7q22 34 52 34q23 0 43 -18q16 -5 16 -12q0 -6 -11 -15h-6q-9 5 -36.5 -42t-65.5 -136q-3 -6 -16 -39zM877 343q5 -1 15.5 -7.5t14.5 -8.5q-7 -1 -16 -3 t-16 -2h-16q-80 7 -109 4q-10 -3 -19 -3q-33 0 -59 35q-94 109 -157 250l-9 18q-26 45 -29 45l-3 1q-8 7 -8 12q0 4 3.5 5t8.5 -1q32 -4 64 -72q62 -135 141 -233q12 -19 30 -19q3 0 11 2h1q100 3 152 -23zM517 485q14 0 33 -17v-1q3 -4 3 -8q0 -11 -26 -18q-49 -4 -100 -34 q-11 -7 -29 -7q-24 0 -56 10q-3 3 -3 4q0 2 7.5 4.5t10.5 4.5l2 1q56 15 92 29t46 23q9 9 20 9zM465 242l-1 -68q0 -148 12 -239q6 -21 6 -34q0 -22 -14 -22q-4 0 -10 3l-2 1q-10 14 -22.5 46.5t-34.5 96.5l-17 48q-2 8 1 2t12.5 -27.5t15.5 -29.5q13 -23 32 -34q2 -2 3 -2 v2q0 143 -6 231q-70 -107 -150 -163l-63 -31q11 13 28.5 29t19.5 19q104 90 160 207l-7 28l-22 -10q-27 -7 -45 -15q-24 -4 -38 -4q-12 0 -40 4q-3 1 -11 3t-8 4q0 3 8 4q10 0 36 7.5t35 9.5q5 0 13 4q44 18 81 27q6 0 6 7q0 14 -10 31q-3 6 -3 11q0 6 5 6l8 -2q9 -9 13 -12 q17 -15 26 -29q55 11 70 35q3 14 17 14q5 0 13 -3q23 -8 47 -29q9 -7 9 -20q-7 -12 -19 -7q-12 2 -21 2q-41 0 -115 -20q-18 -35 -18 -81zM918 325q0 -1 -2 -1q-3 0 -9 3q11 2 11 -2zM642 127q-6 -30 -24 -24q-20 8 -30 27q-21 50 -62 93q-5 6 -8.5 10t-5.5 7q-15 20 -15 21 t1 1q2 0 4.5 -1.5t6.5 -2.5q40 -16 103 -81q30 -24 30 -50z"
       id="path1508"
       style="fill:none;stroke:#d80000;stroke-opacity:1;stroke-width:2;stroke-miterlimit:4;stroke-dasharray:none" />
  </g>
  <path
     style="fill:none;stroke:#000000;stroke-width:1px;stroke-linecap:butt;stroke-linejoin:miter;stroke-opacity:1"
     d="M 367,25 424.25926,6.2037037 492.5,29.777778 431.7037,22.333333 349.81481,197.27778 276.61111,352.37037 79.333333,679.92593 v 0"
     id="path1878" />
  <path
     style="fill:none;stroke:#000000;stroke-width:1px;stroke-linecap:butt;stroke-linejoin:miter;stroke-opacity:1"
     d="m 450.31481,63.277778 52.11112,18.611111 58.31481,134.000001 91.81482,132.75926 53.35185,58.31481 17.37037,6.20371 22.33333,-14.88889 L 918,425 v 0"
     id="path1913" />
  <path
     style="fill:none;stroke:#000000;stroke-width:1px;stroke-linecap:butt;stroke-linejoin:miter;stroke-opacity:1"
     d="M 342,340 404.40741,338.72222 509.87037,290.33333 517,265 l 33,18"
     id="path1948" />
  <path
     style="fill:none;stroke:#000000;stroke-width:1px;stroke-linecap:butt;stroke-linejoin:miter;stroke-opacity:1"
     d="m 272,459 50.51852,6.27778 251.87037,-81.88889 6.2037,-19.85185 L 638,402 v 0"
     id="path1950" />
  <path
     style="fill:none;stroke:#000000;stroke-width:1px;stroke-linecap:butt;stroke-linejoin:miter;stroke-opacity:1"
     d="m 433,356 49,43 -26.72222,55.11111 -1.24074,223.33333 3.72222,55.83334 6.2037,52.11111 18.61111,81.88889 L 382,676"
     id="path1952" />
  <path
     style="fill:none;stroke:#000000;stroke-width:1px;stroke-linecap:butt;stroke-linejoin:miter;stroke-opacity:1"
     d="m 455.27778,454.11111 -57.07408,114.14815 -76.92592,94.2963 -121.59259,81.88888"
     id="path1987" />
  <path
     style="fill:none;stroke:#000000;stroke-width:1px;stroke-linecap:butt;stroke-linejoin:miter;stroke-opacity:1"
     d="M 509,492 610.37037,599.27778 627.74074,645.18519 588,620"
     id="path1989" />
</svg>
