<svg xmlns="http://www.w3.org/2000/svg" width="358.746" height="247.695" viewBox="0 0 358.746 247.695"><g transform="translate(-477.618 -2810.301)"><g transform="translate(-372.564 2771.916)"><g transform="translate(935.564 116.073)"><path d="M1157.718,168.62c2.176-.5,4.25-1.034,6.347-1.454,4.7-.941,9.4-1.911,14.119-2.714,6.246-1.061,12.51-2.018,18.78-2.927,2.45-.355,4.934-.506,7.407-.665a4.709,4.709,0,0,1,4.551,4.181,7.144,7.144,0,0,1-1.286,4.692,4.209,4.209,0,0,1-1.045,1.034,1.236,1.236,0,0,1-1.993-.63c-.138-.294-.225-.613-.391-1.077-1.024,0-2.062-.08-3.084.013a109.369,109.369,0,0,0-16.8,2.635,67.449,67.449,0,0,0-9.63,2.948c-3.261,1.366-6.622,2.389-9.92,3.614-2.933,1.089-5.812,2.324-8.74,3.425a1.77,1.77,0,0,0-1.159,1.227,38.4,38.4,0,0,1-1.618,3.978,18.121,18.121,0,0,1-1.641,2.46,5.28,5.28,0,0,1-.7.7c-1.625,1.554-2.812,3.241-1.726,5.626.724,5.375.6,10.674-1.541,15.762a4.036,4.036,0,0,0,.044,3.592c3.32,6.973,3.937,14.391,3.382,21.969-.214,2.912-.441,5.827-.779,8.726a24.109,24.109,0,0,1-5.025,12.568c-2.8,3.512-5.75,6.866-9.635,9.193a34.5,34.5,0,0,1-5.41,2.41,2.376,2.376,0,0,0-1.7,1.547c-1.041,3.126-2.519,6.129-2.522,9.53a3.711,3.711,0,0,1-.124.649,3.835,3.835,0,0,1-2.737,3.231,25.763,25.763,0,0,1-11.27.96c-1.185-.182-1.6-1.124-.792-2.033a17.5,17.5,0,0,1,2.91-2.393,12.807,12.807,0,0,1,1.883-.936c-.243-2.737-.486-5.462-.733-8.235-2.015-.433-3.937-.844-5.859-1.262-1.13-.245-2.267-.471-3.386-.76a9.279,9.279,0,0,1-4.51-2.61c-1.955-2.046-3.9-4.085-4.8-6.839a33.381,33.381,0,0,1-1.988-11.015,51.8,51.8,0,0,1,2.953-17.363,95.485,95.485,0,0,1,7.9-17.079c.138-.221.236-.467.361-.716-3.039-.638-5.951-.123-8.879.209-1.581.179-3.187.138-4.783.185a3.013,3.013,0,0,1-.656-.078c-2.514-.492-3.455-2.2-2.345-4.5a12.554,12.554,0,0,1,1.957-2.841,18.315,18.315,0,0,1,9.864-5.71c3.6-.806,7.261-1.31,10.895-1.946.266-.047.534-.082.8-.123.742-1.992,1.467-3.937,2.231-5.988a8.549,8.549,0,0,0-3.336-.573c-1.708-.058-3.422.024-5.128-.058a8.643,8.643,0,0,1-2.567-.5,4,4,0,0,1-2.853-4.028c.045-2.917.053-5.844.321-8.745.3-3.226.87-6.427,1.345-9.789-2.818-.668-5.593-1.593-8.513-1.745a7.662,7.662,0,0,0-3.043.54c-1.913.732-1.949.976-1.909,3.012a13.16,13.16,0,0,1-.247,2.956c-.546,2.586-1.757,3.52-4.424,3.5a2.973,2.973,0,0,0-.322.691c-.615,3.21-2.506,5.713-4.47,8.186a5.036,5.036,0,0,1-4.232,1.841c-6.006.009-12.012.075-18.017.009-3.469-.038-6.937-.277-10.4-.449a18.712,18.712,0,0,1-1.943-.311,64.007,64.007,0,0,1-18.616,13.462c0,1.347-.043,2.556.007,3.761a75.462,75.462,0,0,1-1.453,16.6c-.947,5.243-3.416,9.855-6.216,14.314a33.163,33.163,0,0,1-12.436,11.364c-3.471,1.917-7,3.728-10.488,5.618a2.5,2.5,0,0,0-1.144,1.041c-1.152,2.914-2.2,5.867-3.317,8.8-1.014,2.671-2.064,5.327-3.149,8.121.447.106.788.22,1.137.266a26.1,26.1,0,0,1,8.219,2.918,1.813,1.813,0,0,1,.6,2.918,3.364,3.364,0,0,1-2.4,1.315c-1.913.233-3.829.514-5.752.606-4.4.211-8.812.322-13.218.473-.22.007-.489-.078-.654.019-1.547.9-3.111.191-4.667.09-1.1-.071-2.2-.1-3.3-.171-1.787-.122-2.344-1.051-1.551-2.669a14.047,14.047,0,0,1,1.318-2.1,4.965,4.965,0,0,0,1.008-3.239c-.141-3.853-.292-7.707-.351-11.561-.026-1.7.163-3.4.248-5.1a2.092,2.092,0,0,0-.034-.38c-2.682-.828-5.323-1.581-7.915-2.475a11.486,11.486,0,0,1-3.191-1.646c-2.276-1.735-4.442-3.614-6.652-5.435a3.015,3.015,0,0,0-.516-.411c-3.259-1.639-4.684-4.86-6.611-7.647a3.067,3.067,0,0,1-.448-.881c-1.308-4.667-3.569-9.014-4.533-13.8-.988-4.908-2.862-9.616-3.338-14.643a13.19,13.19,0,0,1-.159-1.477c.113-5.619-.026-11.262.449-16.851a71.4,71.4,0,0,1,3.39-15.978c2.18-6.706,4.3-13.434,6.613-20.093,2.245-6.459,4.8-12.8,8.638-18.529.12-.178.206-.379.324-.6a8.348,8.348,0,0,1-.831-8.186,19.786,19.786,0,0,1,2.921-5.712,10.933,10.933,0,0,1,3.956-3.19,5.688,5.688,0,0,1,7.483,2.246c.258.409.5.827.8,1.319.46-.225.857-.389,1.224-.6A24.828,24.828,0,0,1,981,116.86c4.283-.366,8.581-.576,12.877-.763,4.455-.195,8.761.844,13.071,1.781q2.988.649,5.961,1.366a34.231,34.231,0,0,1,10.779,4.506c2.817,1.834,5.616,3.7,8.424,5.548a10.579,10.579,0,0,1,4.267,5.524c.036.1.081.205.117.31,1.214,3.487-2.205,8.521-5.871,8.411-2.857-.085-5.7-.522-8.556-.79-.643-.061-1.293-.066-2.048-.1a6.785,6.785,0,0,0-.072,1.233c.246,1.8.5,3.6.8,5.39.283,1.682.711,3.342.928,5.031.646,5.027,1.239,10.06,1.814,15.1.376,3.283.681,6.575,1.029,9.861.04.375.154.742.263,1.251a7.834,7.834,0,0,0,1.077-.372c3.794-1.986,6.965-4.835,10.269-7.492a2.018,2.018,0,0,0,.525-1.291,19.424,19.424,0,0,0,.026-2.643,40.433,40.433,0,0,1,1.1-9.833,11.92,11.92,0,0,1,2.752-5.567,4.79,4.79,0,0,1,3.12-1.671c2.673-.346,5.337-.76,8-1.162a25.256,25.256,0,0,1,9.671.187c.477.113.96.193,1.574.314.6-1.695,2.055-2.311,3.52-2.992a104.942,104.942,0,0,1,30.942-8.579,82.441,82.441,0,0,0,12.685-2.163c2.083-.609,3.769.3,5.483,1.168a1.9,1.9,0,0,1,.978,2.106,2.94,2.94,0,0,1-1.717,2.627,3.2,3.2,0,0,1-1.445.28c-2.53-.244-4.786.652-6.993,1.666a28.189,28.189,0,0,1-9.014,2.562,19.682,19.682,0,0,0-4.157,1.036c-2.767.918-5.507,1.922-8.251,2.913a12.081,12.081,0,0,0-3.059,1.539c1.382.426,2.753.887,4.147,1.27,2.011.552,2.392,1,2.405,3.112.012,1.975,0,3.951,0,5.984,5.1-1.979,10.377-3.037,15.854-.225-.338-1.96,1.1-3.172,2.111-4.495a37.34,37.34,0,0,1,3.808-3.889,3.976,3.976,0,0,1,3.358-.987c4.883.443,9.775.786,14.657,1.246a52.09,52.09,0,0,1,6.536.936c5.07,1.138,10.218,1.686,15.358,2.33a17.1,17.1,0,0,1,3.523.856,4.459,4.459,0,0,1,3.254,4.149,2.783,2.783,0,0,0,.677,2.139c.182.164.134.612.144.932C1157.731,167.155,1157.718,167.81,1157.718,168.62ZM938.284,193.206c-.034.535-.1,1.183-.111,1.832-.032,1.378.044,2.763-.07,4.133a43.08,43.08,0,0,0,2.016,16.462c.326,1.052.662,2.108.884,3.184a54.518,54.518,0,0,0,3.515,11.513c.361.8.584,1.662.873,2.5,1.285,3.7,3.153,6.994,6.508,9.249.592.4,1.115.9,1.669,1.352,2.132,1.744,4.253,3.5,6.4,5.22a5.059,5.059,0,0,0,1.443.784c3.951,1.408,7.936,2.663,12.2,2.708,1.079.011,2.156.2,3.326.32,1.6-4.764,4.776-7.407,9.76-7.28,3.921.1,6.491,2.276,7.835,6.089a24.224,24.224,0,0,0,2.233-.98c4.181-2.341,8.419-4.594,12.482-7.126a20.874,20.874,0,0,0,4.927-4.36,38.274,38.274,0,0,0,8.891-19.414,100.19,100.19,0,0,0,.861-15.326,5.738,5.738,0,0,0-.148-.837,13.9,13.9,0,0,0-1.513.43,19.824,19.824,0,0,1-7.262,1.41c-3.749.072-7.5.107-11.248.053a6.556,6.556,0,0,1-2.85-.685,21.756,21.756,0,0,1-7.021-5.685,41.593,41.593,0,0,1-5.29-8.368c-.391-.842-.778-1.685-1.182-2.56a10.266,10.266,0,0,0-1.378.082,57.741,57.741,0,0,1-10.7.9,51.176,51.176,0,0,0-11.007,1.051,27.331,27.331,0,0,1-8.044.625,10.688,10.688,0,0,0-4.567.52,7.742,7.742,0,0,1-1.957.241c-.547.053-1.1.04-1.642.138C944.933,191.96,941.751,192.56,938.284,193.206Zm170.145-8.227c2.151.284,4.149.693,6.161.788,5.062.239,10.129.386,15.2.479a138.393,138.393,0,0,0,16.028-.3,1.661,1.661,0,0,0,1.561-.958c.771-1.636,1.517-3.287,2.349-4.892,1.75-3.372,1.818-7.022,1.6-10.646-.2-3.4-1.594-4.554-5.057-4.878-.658-.062-1.312-.169-1.964-.276-2.876-.473-5.747-.976-8.628-1.423-1.521-.236-3.056-.393-4.587-.56a39.617,39.617,0,0,0-7.075-.382c-2.348.163-4.723-.074-7.086-.109a4.76,4.76,0,0,0-3.638,1.3,12.186,12.186,0,0,0-2.942,6.013,88.581,88.581,0,0,0-1.993,13.05C1108.293,183.042,1108.4,183.912,1108.429,184.98Zm-48.142-4.452a2.992,2.992,0,0,0,.611.088,34.741,34.741,0,0,1,10.361-.3c1.037.1,2.092.015,3.138.051a1.463,1.463,0,0,0,1.633-1.083c.405-1.309.815-2.617,1.19-3.935a15.026,15.026,0,0,1,.711-2.7,49.111,49.111,0,0,0,2.737-8.108,5.676,5.676,0,0,0,.055-3.1,1.592,1.592,0,0,0-1.535-1.421c-3.055-.323-6.1-.751-9.153-1.083-2.785-.3-5.592-.433-8.364-.816a52.925,52.925,0,0,0-15.306.307,1.428,1.428,0,0,0-1.428,1.448c-.339,2.9-.747,5.782-1.113,8.674-.017.127.12.273.172.385,1.672.253,2.244-1.008,2.887-2.054a14.1,14.1,0,0,1,12.933-7.122,7.78,7.78,0,0,1,6.815,3.925,4.75,4.75,0,0,1,.781,3.62,4.51,4.51,0,0,0,.015,1.462,4.185,4.185,0,0,1-2.25,4.709,4.452,4.452,0,0,0-1.852,2.024c-.637,1.214-1.385,2.369-2.094,3.544C1060.955,179.506,1060.656,179.952,1060.287,180.528Zm-8.936-2.041c.9.962,1.625,2.134,2.774,2.173a5.208,5.208,0,0,0,4.315-1.623,23.164,23.164,0,0,0,2.661-4.149,7.412,7.412,0,0,1,3.063-3.549,1.388,1.388,0,0,0,.748-1.642,5.148,5.148,0,0,1-.072-1.789,3.433,3.433,0,0,0-.859-3.049,5.687,5.687,0,0,0-5.31-2.388c-.6.061-1.2.145-1.806.189a9.814,9.814,0,0,0-7.6,4.644,5.4,5.4,0,0,0-.439.883,11.625,11.625,0,0,1,2.632,1.5c.589.585.911,1.4,1.694,1.908a1.98,1.98,0,0,1,.6,1.594,7.809,7.809,0,0,1-.758,2.481C1052.556,176.607,1051.955,177.471,1051.352,178.487Zm72.132,21.289c.842,0,1.447.022,2.049,0,1.483-.064,2.964-.208,4.446-.211,1.208,0,2.415.194,3.624.227a6.673,6.673,0,0,1,3.59,1.067c.621.407,1.305.719,2.056,1.126v-8.394c-5.375.2-10.727.4-16.141.749C1123.241,196.265,1123.357,197.947,1123.484,199.776Zm22.857,30.424c-.2-.253-.438-.84-.831-.976-.583-.2-1,.3-1.217.858a4.438,4.438,0,0,0-.132.478,9.55,9.55,0,0,0-.489,1.908c-.108,2.186-.186,4.377-.15,6.565.013.806.88,1.017,1.446.389a2.482,2.482,0,0,0,.563-1.158,6.162,6.162,0,0,0,.112-1.971,8.914,8.914,0,0,1,.5-5.171A5.548,5.548,0,0,0,1146.341,230.2Zm-12.776,34.116a4.379,4.379,0,0,0,.934-.6c2-2.022,3.983-4.069,5.961-6.117a.955.955,0,0,0,.3-.566c0-.354-.007-.845-.222-1.023a1.091,1.091,0,0,0-1.018.032,10.166,10.166,0,0,0-1.617,1.389q-2.357,2.406-4.663,4.86a3.026,3.026,0,0,0-.681,1.091C1132.39,263.922,1132.81,264.357,1133.565,264.315Zm4.159-9.2a8.78,8.78,0,0,0,1.023-1.16c.677-1.062,1.27-2.178,1.92-3.259.681-1.132,1.406-2.238,2.073-3.378a2.952,2.952,0,0,0,.422-1.228,1.069,1.069,0,0,0-.451-.779.872.872,0,0,0-.752.1,2.336,2.336,0,0,0-.663.711c-1.23,1.891-2.477,3.774-3.646,5.7a9.812,9.812,0,0,0-.933,2.275C1136.555,254.649,1136.8,255.082,1137.724,255.12ZM978.8,135.92a12.852,12.852,0,0,0-1.582-.671c-1.217-.33-1.852.047-2.243,1.276a4.925,4.925,0,0,0-.245,1.127,2.569,2.569,0,0,0,3.882,2.489C977.235,138.56,977.237,138.32,978.8,135.92Zm160.423,105.542c-.124-.2-.275-.742-.557-.823-.313-.09-.759.22-1.123.4-.124.063-.188.261-.26.407q-.794,1.608-1.58,3.221c-.233.481-.33,1.042.216,1.28a1.3,1.3,0,0,0,1.155-.235A8.267,8.267,0,0,0,1139.224,241.463Zm2.68-17.087.039,0c0,.33-.013.66,0,.988a4.977,4.977,0,0,0,.108,1.143.8.8,0,0,0,1.4.415,1.62,1.62,0,0,0,.545-.96,23.137,23.137,0,0,0-.075-3.289,1.312,1.312,0,0,0-.686-.96c-.617-.181-1.056.31-1.193.865A10.457,10.457,0,0,0,1141.9,224.376ZM1126.9,214.025a6.035,6.035,0,0,0-.379.831,1.555,1.555,0,0,0,.538,1.771,1.447,1.447,0,0,0,1.708-.009,5.253,5.253,0,0,0,1.5-1.235,1.455,1.455,0,0,0-.072-2.112C1129.185,213.987,1128.411,215.63,1126.9,214.025Z" transform="translate(-935.564 -116.073)"/><path d="M1244.282,132.5c1.742-.425,3.885.222,5.9-.616a1.091,1.091,0,0,1,1.017.2,1.557,1.557,0,0,1,.128,1.209,2.167,2.167,0,0,1-1.672,1.457,26.185,26.185,0,0,1-3.584.558,6.346,6.346,0,0,0-3.66,1.34c-3.257,2.518-5.847,5.506-6.816,9.648a3.6,3.6,0,0,1-.608,1.331c-.382.5-1,.889-1.571.454a2,2,0,0,1-.647-1.369,6.512,6.512,0,0,1,.4-1.76,15.127,15.127,0,0,0,.122-6.719c-.332-1.686-1.014-2.137-2.7-1.828a20.813,20.813,0,0,0-2.52.778c-1.31.418-2.615.857-3.933,1.248a1.267,1.267,0,0,1-1.7-.589,1.594,1.594,0,0,1,.63-1.891,3.507,3.507,0,0,1,1.2-.492c3.906-.873,6.8-3.256,9.309-6.212a3.753,3.753,0,0,0,.792-3.065,37.45,37.45,0,0,1-.064-5.939,4.011,4.011,0,0,1,.824-2.095c.83-1.085,1.983-.9,2.341.4a16.4,16.4,0,0,1,.518,3.9,21.247,21.247,0,0,1-.392,3.109,9.872,9.872,0,0,0-.161,1.8,4.914,4.914,0,0,0,4.878,5.041C1242.875,132.454,1243.428,132.456,1244.282,132.5Zm-11.228.953c2.758.925,2.768,3.362,3.306,5.627l3.82-4.076a6.423,6.423,0,0,1-4.79-4.042Z" transform="translate(-1031.737 -116.531)"/><path d="M1125.373,255.761a5.538,5.538,0,0,1,.843-1.275,1.067,1.067,0,0,1,1.908.6,2.489,2.489,0,0,1-1.585,2.8,18.418,18.418,0,0,1-4.076,1.263,2.879,2.879,0,0,0-2.147,1.31c-.834,1.359-1.71,2.7-2.464,4.1a7.523,7.523,0,0,0-.974,4.614,4.079,4.079,0,0,1-.048,1.642,3.29,3.29,0,0,1-.88,1.509,1.106,1.106,0,0,1-1.94-.735c-.12-.865.018-1.763-.052-2.639a8.5,8.5,0,0,0-.409-2.238,2.332,2.332,0,0,0-2.306-1.544,4.555,4.555,0,0,0-4.33,1.832,4.59,4.59,0,0,1-2.146,1.412c-.945.325-1.588-.407-1.42-1.414a2.883,2.883,0,0,1,1.441-1.933c3.144-2.024,4.76-5.11,5.99-8.481a4.75,4.75,0,0,0,.13-3.209,8.71,8.71,0,0,1-.239-2.928,2.925,2.925,0,0,1,.649-1.484,1.7,1.7,0,0,1,1.866-.776,1.535,1.535,0,0,1,.968,1.59,20.259,20.259,0,0,1-.045,2.972,2.719,2.719,0,0,0,1.2,2.558,7.064,7.064,0,0,0,4.7,1.224,1.774,1.774,0,0,0,.994-.51C1122.359,254.808,1123.775,254.489,1125.373,255.761Zm-7.483,3.8-4.876-1.834-2.179,4.579c1.806-.06,3.346.228,4.5,1.584Z" transform="translate(-991.824 -160.356)"/><path d="M939.5,229.411c3.467-.646,6.649-1.247,9.835-1.824.538-.1,1.1-.085,1.642-.138a7.743,7.743,0,0,0,1.957-.241,10.688,10.688,0,0,1,4.567-.52,27.331,27.331,0,0,0,8.044-.625,51.177,51.177,0,0,1,11.007-1.051,57.74,57.74,0,0,0,10.7-.9,10.264,10.264,0,0,1,1.378-.082c.4.875.792,1.717,1.182,2.56a41.59,41.59,0,0,0,5.29,8.368,21.756,21.756,0,0,0,7.021,5.685,6.556,6.556,0,0,0,2.85.685c3.749.054,7.5.019,11.248-.053a19.824,19.824,0,0,0,7.263-1.41,13.894,13.894,0,0,1,1.513-.43,5.715,5.715,0,0,1,.148.837,100.19,100.19,0,0,1-.861,15.326,38.274,38.274,0,0,1-8.891,19.414,20.874,20.874,0,0,1-4.927,4.36c-4.063,2.532-8.3,4.785-12.482,7.126a24.242,24.242,0,0,1-2.233.98c-1.344-3.814-3.913-5.99-7.835-6.089-4.984-.127-8.162,2.516-9.76,7.28-1.17-.118-2.247-.309-3.326-.32-4.262-.046-8.246-1.3-12.2-2.708a5.057,5.057,0,0,1-1.443-.784c-2.151-1.72-4.272-3.476-6.4-5.22-.554-.453-1.077-.955-1.669-1.352-3.355-2.255-5.223-5.544-6.508-9.249-.289-.833-.512-1.695-.873-2.5a54.521,54.521,0,0,1-3.515-11.513c-.222-1.076-.558-2.131-.884-3.184a43.081,43.081,0,0,1-2.017-16.462c.114-1.37.038-2.756.07-4.133C939.4,230.594,939.465,229.946,939.5,229.411Z" transform="translate(-936.78 -152.277)" fill="#fff"/><path d="M1195.608,208.064c-.033-1.068-.135-1.938-.072-2.8a88.582,88.582,0,0,1,1.993-13.05,12.186,12.186,0,0,1,2.942-6.013,4.76,4.76,0,0,1,3.638-1.3c2.363.035,4.738.272,7.086.109a39.616,39.616,0,0,1,7.075.381c1.531.166,3.066.324,4.587.56,2.881.447,5.752.95,8.628,1.423.653.107,1.307.214,1.965.276,3.463.324,4.856,1.481,5.057,4.878.214,3.624.146,7.274-1.6,10.646-.833,1.605-1.578,3.256-2.349,4.892a1.661,1.661,0,0,1-1.561.958,138.4,138.4,0,0,1-16.028.3c-5.067-.092-10.134-.239-15.2-.479C1199.757,208.757,1197.759,208.349,1195.608,208.064Zm34.766-16.864a2.707,2.707,0,0,0-.72.316q-2.924,2.544-5.818,5.122c-1.482,1.321-2.942,2.665-4.407,4-.377.344-.809.794-.414,1.268.507.608.974.075,1.385-.284.166-.145.31-.314.476-.459,2.081-1.806,4.171-3.6,6.241-5.419.952-.835,1.9-1.678,2.782-2.585C1230.374,192.673,1230.918,192.094,1230.375,191.2Zm3.229,4.787-.516-.22c-.635.719-1.217,1.493-1.913,2.147-2.16,2.028-4.36,4.015-6.552,6.008-.46.418-1.364.784-.656,1.5.625.629,1.18-.156,1.637-.571,2.074-1.879,4.145-3.762,6.173-5.691a11.831,11.831,0,0,0,1.641-2.038A2.91,2.91,0,0,0,1233.6,195.988Z" transform="translate(-1022.744 -139.158)" fill="#fff"/><path d="M1114.913,201.534c.369-.576.668-1.022.944-1.48.709-1.176,1.457-2.331,2.094-3.544a4.45,4.45,0,0,1,1.852-2.024,4.185,4.185,0,0,0,2.25-4.709,4.5,4.5,0,0,1-.016-1.462,4.751,4.751,0,0,0-.781-3.62,7.78,7.78,0,0,0-6.814-3.925,14.1,14.1,0,0,0-12.933,7.122c-.643,1.047-1.214,2.307-2.886,2.054-.052-.112-.189-.258-.172-.385.366-2.892.775-5.779,1.113-8.674a1.428,1.428,0,0,1,1.428-1.448,52.925,52.925,0,0,1,15.306-.307c2.772.383,5.579.513,8.364.816,3.055.332,6.1.76,9.153,1.083a1.592,1.592,0,0,1,1.535,1.421,5.675,5.675,0,0,1-.055,3.1,49.088,49.088,0,0,1-2.737,8.108,15.015,15.015,0,0,0-.711,2.7c-.375,1.318-.785,2.626-1.19,3.935a1.463,1.463,0,0,1-1.633,1.083c-1.045-.035-2.1.054-3.138-.051a34.741,34.741,0,0,0-10.361.3A2.993,2.993,0,0,1,1114.913,201.534Zm9.773-7.514c.49-.382.918-.558,1.089-.874,1-1.848.694-3.845.512-5.808-.019-.2-.476-.51-.713-.5s-.518.333-.678.582c-.1.152-.01.425,0,.643a13.136,13.136,0,0,1-.363,4.9C1124.458,193.182,1124.6,193.468,1124.686,194.02Zm4.641.147c.183.059.25.106.285.089,1.533-.794,2.4-4.5,1.366-5.847a.613.613,0,0,0-1.075.112,2.006,2.006,0,0,0-.116.955,7.181,7.181,0,0,1-.5,3.877C1129.185,193.586,1129.312,193.927,1129.328,194.167Z" transform="translate(-990.19 -137.08)" fill="#fff"/><path d="M1108.5,201.88c.6-1.016,1.2-1.88,1.646-2.819a7.805,7.805,0,0,0,.758-2.481,1.98,1.98,0,0,0-.6-1.594c-.784-.51-1.105-1.323-1.694-1.908a11.612,11.612,0,0,0-2.632-1.5,5.425,5.425,0,0,1,.439-.883,9.815,9.815,0,0,1,7.6-4.644c.6-.045,1.2-.128,1.806-.189a5.687,5.687,0,0,1,5.31,2.388,3.432,3.432,0,0,1,.859,3.049,5.145,5.145,0,0,0,.072,1.789,1.389,1.389,0,0,1-.748,1.642,7.412,7.412,0,0,0-3.062,3.549,23.17,23.17,0,0,1-2.661,4.149,5.208,5.208,0,0,1-4.315,1.623C1110.128,204.014,1109.4,202.842,1108.5,201.88Zm5.262-8.241c1.22-.639,2.822-1.029,3.83-2.359a1.272,1.272,0,0,0,.028-1.2,1.241,1.241,0,0,0-1.155-.257,24.416,24.416,0,0,0-3.2,1.651,1.882,1.882,0,0,0-.649,1.09C1112.464,193.153,1112.935,193.632,1113.765,193.64Zm1.365,2.322c-.154-.131-.411-.51-.744-.6-.614-.161-1.355.567-1.407,1.294-.04.562.182.974.8,1.006S1115.09,196.958,1115.129,195.961Z" transform="translate(-992.715 -139.467)" fill="#fff"/><path d="M1251.27,287.27a5.554,5.554,0,0,1-.194.922,8.914,8.914,0,0,0-.5,5.171,6.158,6.158,0,0,1-.112,1.971,2.483,2.483,0,0,1-.563,1.158c-.566.628-1.433.417-1.446-.389-.036-2.187.041-4.379.15-6.565a9.559,9.559,0,0,1,.489-1.908,4.441,4.441,0,0,1,.132-.478c.22-.558.635-1.06,1.218-.858C1250.832,286.43,1251.069,287.017,1251.27,287.27Z" transform="translate(-1040.493 -173.144)" fill="#fff"/><path d="M1232.949,334.87c-.754.042-1.175-.393-1-.933a3.029,3.029,0,0,1,.681-1.091q2.306-2.453,4.663-4.86a10.166,10.166,0,0,1,1.617-1.389,1.091,1.091,0,0,1,1.018-.032c.216.177.219.669.222,1.023a.956.956,0,0,1-.3.566c-1.978,2.048-3.957,4.094-5.961,6.117A4.371,4.371,0,0,1,1232.949,334.87Z" transform="translate(-1034.948 -186.628)" fill="#fff"/><path d="M1239.2,320.309c-.927-.038-1.169-.471-1.006-1.014a9.805,9.805,0,0,1,.933-2.275c1.168-1.929,2.415-3.812,3.646-5.7a2.335,2.335,0,0,1,.663-.711.872.872,0,0,1,.752-.1,1.07,1.07,0,0,1,.451.779,2.95,2.95,0,0,1-.422,1.228c-.667,1.141-1.393,2.246-2.073,3.378-.65,1.081-1.243,2.2-1.92,3.259A8.778,8.778,0,0,1,1239.2,320.309Z" transform="translate(-1037.041 -181.262)" fill="#fff"/><path d="M998.559,145.539c-1.564,2.4-1.566,2.64-.188,4.221a2.569,2.569,0,0,1-3.881-2.489,4.921,4.921,0,0,1,.245-1.127c.391-1.229,1.026-1.606,2.243-1.276A12.856,12.856,0,0,1,998.559,145.539Z" transform="translate(-955.323 -125.692)" fill="#fff"/><path d="M1240.117,304.31a8.265,8.265,0,0,1-2.15,4.253,1.3,1.3,0,0,1-1.155.235c-.546-.239-.45-.8-.217-1.28q.784-1.613,1.58-3.221c.073-.146.136-.345.261-.407.364-.183.809-.493,1.123-.4C1239.843,303.567,1239.994,304.11,1240.117,304.31Z" transform="translate(-1036.458 -178.92)" fill="#fff"/><path d="M1246.021,277.663a10.481,10.481,0,0,1,.14-1.794c.137-.555.576-1.046,1.193-.865a1.312,1.312,0,0,1,.686.96,23.119,23.119,0,0,1,.075,3.289,1.62,1.62,0,0,1-.544.96.8.8,0,0,1-1.4-.415,4.99,4.99,0,0,1-.108-1.143c-.016-.328,0-.659,0-.988Z" transform="translate(-1039.681 -169.36)" fill="#fff"/><path d="M1223.208,263.069c1.515,1.606,2.289-.037,3.3-.754a1.455,1.455,0,0,1,.072,2.112,5.248,5.248,0,0,1-1.5,1.235,1.447,1.447,0,0,1-1.708.009,1.555,1.555,0,0,1-.538-1.771A6.039,6.039,0,0,1,1223.208,263.069Z" transform="translate(-1031.877 -165.118)" fill="#fff"/><path d="M1238.464,140.271l2.335-2.49a6.423,6.423,0,0,0,4.79,4.042l-3.82,4.076C1241.232,143.634,1241.222,141.2,1238.464,140.271Z" transform="translate(-1037.147 -123.353)" fill="#fff"/><path d="M1121.682,264.412l-2.553,4.329c-1.155-1.356-2.7-1.644-4.5-1.584l2.179-4.579Z" transform="translate(-995.616 -165.206)" fill="#fff"/><path d="M1242.153,194.376c.543.894,0,1.473-.475,1.963-.88.908-1.83,1.751-2.782,2.585-2.07,1.818-4.161,3.612-6.242,5.419-.166.144-.31.314-.476.459-.411.36-.878.893-1.385.284-.4-.474.037-.924.414-1.268,1.465-1.339,2.926-2.682,4.407-4q2.893-2.581,5.818-5.122A2.7,2.7,0,0,1,1242.153,194.376Z" transform="translate(-1034.522 -142.333)"/><path d="M1247.827,201.468a2.915,2.915,0,0,1-.187,1.133,11.843,11.843,0,0,1-1.641,2.038c-2.028,1.929-4.1,3.812-6.173,5.691-.457.415-1.012,1.2-1.637.571-.708-.712.2-1.079.656-1.5,2.192-1.993,4.392-3.98,6.552-6.008.7-.654,1.279-1.428,1.913-2.147Z" transform="translate(-1036.967 -144.638)"/><path d="M1137.838,198.123c-.089-.552-.228-.837-.155-1.049a13.141,13.141,0,0,0,.363-4.9c-.009-.218-.1-.491,0-.643.161-.249.435-.567.678-.582s.694.3.713.5c.183,1.963.489,3.959-.512,5.808C1138.755,197.565,1138.328,197.741,1137.838,198.123Z" transform="translate(-1003.341 -141.183)"/><path d="M1144.87,198.925c-.016-.24-.143-.581-.036-.814a7.179,7.179,0,0,0,.5-3.877,2,2,0,0,1,.116-.955.613.613,0,0,1,1.076-.112c1.031,1.345.167,5.054-1.367,5.847C1145.12,199.031,1145.052,198.984,1144.87,198.925Z" transform="translate(-1005.732 -141.838)"/><path d="M1117.1,195.629c-.83-.008-1.3-.487-1.151-1.077a1.882,1.882,0,0,1,.649-1.09,24.4,24.4,0,0,1,3.2-1.651,1.241,1.241,0,0,1,1.155.257,1.272,1.272,0,0,1-.028,1.2C1119.921,194.6,1118.32,194.99,1117.1,195.629Z" transform="translate(-996.05 -141.456)"/><path d="M1118.66,200.762c-.039,1-.717,1.736-1.349,1.7s-.843-.445-.8-1.006c.052-.727.793-1.455,1.407-1.294C1118.249,200.252,1118.505,200.631,1118.66,200.762Z" transform="translate(-996.246 -144.268)"/></g></g><g transform="matrix(0.998, -0.07, 0.07, 0.998, -167.541, 191.521)"><g transform="translate(324.203 2466.101) rotate(-14)"><path d="M162.865,297.722a24.421,24.421,0,0,1,.565-5.173A1.739,1.739,0,0,1,165,291.018a11.444,11.444,0,0,1,1.435-.083.727.727,0,0,1,.74.456.959.959,0,0,1-.245.973.862.862,0,0,1-.807.364.663.663,0,0,0-.85.412c-.062.15-.239.251-.351.384-.035.042-.029.119-.041.18a.835.835,0,0,0,.178.027c.482-.024.966-.036,1.445-.087a4.735,4.735,0,0,0,.891-.2.626.626,0,0,1,.729.111.61.61,0,0,1,.087.738,2.107,2.107,0,0,1-.475.61,3.056,3.056,0,0,1-1.9.641c-.37.009-.738.053-1.107.082-.04.386-.1.772-.117,1.16a30.149,30.149,0,0,0,.608,5.761c.077.477.188.948.285,1.422.039.194.123.28.3.12.033-.029.068-.056.1-.086.267-.26.667-.479.766-.792.115-.362-.378-.577-.572-.881-.26-.407-.575-.78-.822-1.194a1.921,1.921,0,0,1,.434-2.506.733.733,0,0,1,.895-.218c.27.151.389.43.247.872a.8.8,0,0,0,.168.844c.111.131.2.15.267-.043a1.524,1.524,0,0,1,.786-.755,11.741,11.741,0,0,0,2.458-1.527,1.058,1.058,0,0,1,.337-.2.587.587,0,0,1,.844.645,1.976,1.976,0,0,1-.4.811,5.6,5.6,0,0,1-2.523,1.616c-.266.105-.534.2-.807.289-.194.061-.173.158-.073.282a3.055,3.055,0,0,0,2.212,1.164c.545.046,1.095.053,1.643.059.49.005.738.261.664.75a1.119,1.119,0,0,1-.9.938,5.385,5.385,0,0,1-3.121-.033.649.649,0,0,0-.8.193c-.371.435-.766.85-1.17,1.254a5.459,5.459,0,0,1-.846.729.954.954,0,0,1-1.44-.4,3.378,3.378,0,0,1-.293-.8A37.884,37.884,0,0,1,162.865,297.722Z" transform="translate(-42.95 -8.377)" fill="#161515"/><path d="M103.505,298.121c.285-.024.57-.066.855-.067a.621.621,0,0,1,.678.762,1.17,1.17,0,0,1-1.05,1.017c-.588.075-1.177.156-1.767.212-.257.024-.423.12-.453.378-.058.509-.267,1,.068,1.525a1.059,1.059,0,0,1-.46,1.316.949.949,0,0,1-1.216-.087,1.018,1.018,0,0,1-.282-.633,16.413,16.413,0,0,1,.084-1.837c.043-.456.069-.467-.358-.463-.483,0-.967.03-1.45.055a.889.889,0,0,0-.237.085,1.144,1.144,0,0,0,.157.161.684.684,0,0,1,.292,1,4.923,4.923,0,0,1-.646.91,1.14,1.14,0,0,1-1.165.266.6.6,0,0,1-.462-.581c-.041-.37-.046-.745-.056-1.118-.006-.2-.019-.347-.26-.457a.67.67,0,0,1-.36-1.019,1.956,1.956,0,0,1,.557-.631,1.078,1.078,0,0,0,.468-.749c.084-.543.2-1.08.3-1.621a.688.688,0,0,0-.018-.19,1.3,1.3,0,0,0-.208.1c-.052.038-.082.1-.129.149-.342.325-.664.411-.944.253a.972.972,0,0,1-.4-1.154,1.962,1.962,0,0,1,.953-1.052,3.3,3.3,0,0,1,.549-.221c.659-.212.644-.21.727-.852a6.943,6.943,0,0,1,.244-1.089,1.579,1.579,0,0,1,.929-.97,1,1,0,0,1,1.1.176.819.819,0,0,1-.171,1.076,1.22,1.22,0,0,0-.4,1.051c0,.221.076.324.3.323q.858,0,1.716,0c.227,0,.3-.126.33-.324a6.126,6.126,0,0,1,.218-1.028,2.042,2.042,0,0,1,.439-.717.7.7,0,0,1,.845-.18c.264.127.363.389.314.794s-.084.786-.142,1.178c-.041.277.054.385.338.429a8.612,8.612,0,0,1,1.28.3.648.648,0,0,1,.466.878,1.056,1.056,0,0,1-1.392.818c-1.205-.314-1.029-.309-1.279.83-.033.15-.046.3-.07.456-.091.574-.092.576.519.557.22-.007.44-.021.659-.031Zm-3.732-2.058c-1.437.08-1.135-.235-1.451,1.248a8.659,8.659,0,0,0-.1,1.014c.346.011.693.046,1.038.028.388-.02.772-.087,1.158-.133.083-.359.177-.715.244-1.077.062-.333.1-.672.142-1.008Z" transform="translate(0 -8.695)" fill="#161515"/><path d="M282.817,300.289c-1,.165-1.993.325-2.988.5-.582.1-1.16.223-1.741.33a.643.643,0,0,1-.808-.638,1.3,1.3,0,0,1,.938-1.351,10.76,10.76,0,0,1,1.167-.209c.585-.1,1.17-.195,1.757-.277.652-.091,1.306-.183,1.962-.24.306-.026.432-.126.406-.442a1.989,1.989,0,0,1,.367-1.437,1.665,1.665,0,0,1,.478-.438.553.553,0,0,1,.875.5c.032.438.051.876.068,1.314.011.3.165.388.453.439a10.773,10.773,0,0,1,1.654.413.763.763,0,0,1,.556,1.12,1.033,1.033,0,0,1-1.319.665,3.534,3.534,0,0,0-.88-.256c-.331-.062-.375-.014-.389.338-.013.33.006.66-.008.99-.042.966-.083,1.932-.147,2.9a.493.493,0,0,0,.368.584c.716.28,1.414.6,2.115.921a.721.721,0,0,1,.457.959,1.122,1.122,0,0,1-1.554.85c-.45-.174-.884-.39-1.323-.593-.5-.232-.514-.238-.7.263a4.739,4.739,0,0,1-1.019,1.68,2.866,2.866,0,0,1-2.694.894,2.728,2.728,0,0,1-1.346-4.139,3.271,3.271,0,0,1,2.184-1.229,11.5,11.5,0,0,1,1.383-.063c.269,0,.41-.071.418-.363q.047-1.78.114-3.559c.01-.283-.106-.4-.39-.377-.131.012-.264,0-.4,0Zm-.854,7.882a1.188,1.188,0,0,0,.363-.109,1.9,1.9,0,0,0,.724-1.276c.012-.046-.086-.169-.143-.176a3.693,3.693,0,0,0-1.877.137.413.413,0,0,0-.212.292A1.226,1.226,0,0,0,281.963,308.171Z" transform="translate(-115.334 -11.573)" fill="#161515"/><path d="M352.393,307.839a6.2,6.2,0,0,1,.161-.776,1.274,1.274,0,0,1,1.268-.869c.5.01.795.355.626.833-.389,1.1.12,2.053.437,3.041.023.072.108.123.164.184.068-.075.165-.138.2-.226.163-.407.311-.821.459-1.234a2.607,2.607,0,0,1,.975-1.374,1.6,1.6,0,0,1,2.558.519c.105.193.2.391.295.59.18.376.353.757.54,1.13.032.064.119.1.18.151a.626.626,0,0,0,.09-.159c.134-.577.259-1.156.392-1.733.127-.555.233-1.117.4-1.661a1.438,1.438,0,0,1,1.026-.947c.586-.18,1.033.208.817.768-.535,1.384-.541,2.888-1.029,4.28a7.3,7.3,0,0,1-.757,1.816,1.52,1.52,0,0,1-1.154.673.705.705,0,0,1-.745-.308c-.241-.392-.488-.782-.693-1.193-.285-.57-.526-1.161-.8-1.736a3.69,3.69,0,0,0-.324-.478c-.094.161-.2.315-.281.483-.314.677-.6,1.367-.936,2.032a3.752,3.752,0,0,1-.562.724,1.234,1.234,0,0,1-1.855-.082,7.565,7.565,0,0,1-.514-.763A11.332,11.332,0,0,1,352.393,307.839Z" transform="translate(-162.861 -17.443)" fill="#161515"/><path d="M227.423,287.031l.132-.006c.316-.019.641-.026.8.309a.932.932,0,0,1-.135.994,1.137,1.137,0,0,1-.895.488c-.263.017-.528.019-.79.049-.359.042-.4.095-.378.47a1.243,1.243,0,0,0,.434.991,1.818,1.818,0,0,1,.3.426c.17-.133.347-.259.51-.4a2.5,2.5,0,0,0,.733-1.078,3.919,3.919,0,0,1,.289-.664,2,2,0,0,1,.4-.509.588.588,0,0,1,.733-.09.6.6,0,0,1,.259.635,4.523,4.523,0,0,1-.9,2.236c-.1.12-.21.227-.3.35s-.153.245-.228.368a4.168,4.168,0,0,0,.454,0c.655-.075,1.31-.147,1.961-.241.61-.089.892.445.6,1.012a1.011,1.011,0,0,1-.7.552c-1.093.235-2.2.429-3.278.706a14,14,0,0,1-3.723.412c-.262,0-.524.056-.787.074-.607.042-.921-.364-.681-.925a1.385,1.385,0,0,1,1.055-.905c.389-.062.786-.069,1.18-.1a3.125,3.125,0,0,0,.524-.035.306.306,0,0,0,.171-.507,2.975,2.975,0,0,1-.7-2.136c-.012-.454-.024-.456-.5-.47-.264-.008-.529-.016-.792,0a.675.675,0,0,1-.666-.953,1.176,1.176,0,0,1,.965-.887,2.04,2.04,0,0,1,.329-.017l3.625-.086Z" transform="translate(-80.462 -5.899)" fill="#161515"/><path d="M420.252,310.255c.071-.477.109-.962.218-1.431.194-.834.406-1.667.661-2.485a4.423,4.423,0,0,1,.511-.9c.1-.166.232-.314.318-.486a1.36,1.36,0,0,1,.939-.764,3.86,3.86,0,0,1,2.753.328,2.47,2.47,0,0,1,1.391,1.893,5.552,5.552,0,0,1-1.154,4.648,11.759,11.759,0,0,1-1.456,1.424,3.754,3.754,0,0,1-1.113.544,1.161,1.161,0,0,1-.708.028c-.254-.085-.448-.376-.7-.431a1.805,1.805,0,0,1-.791-.256A2.314,2.314,0,0,1,420.252,310.255Zm5.07-2.319c-.017-.2-.019-.4-.054-.588a1.648,1.648,0,0,0-1.515-1.325c-.063,0-.15-.01-.188.025-.267.25-.663.468-.76.776a26.477,26.477,0,0,0-.663,2.806c-.071.356-.021.366.367.319.534-.064.72.064.839.582.019.085.019.176.041.26.077.289.162.326.406.133A3.536,3.536,0,0,0,425.323,307.936Z" transform="translate(-205.792 -16.691)" fill="#161515"/><path d="M393.035,314.032a2.039,2.039,0,0,1-1.48-.835,7.609,7.609,0,0,1-1.209-2.182c-.075-.206-.144-.415-.226-.619-.022-.054-.083-.093-.126-.139a.788.788,0,0,0-.074.166c-.084.431-.138.871-.253,1.294a7.252,7.252,0,0,1-.415,1.1,1.371,1.371,0,0,1-.342.4c-.361.332-.735.4-1.011.208-.258-.183-.267-.5-.14-.965.182-.675.322-1.362.453-2.05.152-.8.27-1.6.416-2.4a1.811,1.811,0,0,1,.685-1.095,1.03,1.03,0,0,1,1.563.166,3.145,3.145,0,0,1,.395.754c.272.7.491,1.414.791,2.1a14.087,14.087,0,0,0,.9,1.676c.177.289.31.25.411-.091.106-.358.166-.729.277-1.085.244-.774.492-1.548.769-2.31a2.058,2.058,0,0,1,.879-1.123,2.343,2.343,0,0,1,.917-.3.587.587,0,0,1,.634.819,1.676,1.676,0,0,1-.5.74,1.325,1.325,0,0,0-.483.677c-.225.78-.455,1.559-.657,2.346a5.858,5.858,0,0,1-.939,2.02A1.969,1.969,0,0,1,393.035,314.032Z" transform="translate(-185.186 -18.306)" fill="#161515"/><path d="M200.934,306.025c-.264,0-.528.008-.791,0a.546.546,0,0,1-.534-.417,1.2,1.2,0,0,1,.245-1.175.845.845,0,0,1,1.051-.307.723.723,0,0,0,.191.047c.733.1.825.024.872-.7a3.33,3.33,0,0,1,.119-.709c.08-.278-.044-.3-.26-.264-.367.066-.733.142-1.1.193-.68.094-1.059-.35-.845-1a1.208,1.208,0,0,1,.925-.853,8.711,8.711,0,0,1,3.725-.075.646.646,0,0,1,.53.835,1.078,1.078,0,0,1-1.173.915c-.291-.016-.346.082-.319.323.007.065,0,.132.01.2.022.238-.034.55.1.691.1.111.433.013.663,0a.578.578,0,0,1,.645.706,1.071,1.071,0,0,1-.814.937c-.494.137-.548.083-.487.738.075.808.217,1.61.324,2.415.04.3.075.611.092.918a1.065,1.065,0,0,1-.385.874.688.688,0,0,1-1.214-.212c-.132-.255-.173-.287-.359-.031a1.451,1.451,0,0,1-1.939.314,1.591,1.591,0,0,1-.461-2,1.372,1.372,0,0,1,.416-.411.641.641,0,0,1,1.01.331.953.953,0,0,0,.93.635c.044,0,.121-.062.122-.1a2.614,2.614,0,0,0-.029-.393c-.079-.676-.165-1.35-.238-2.027-.043-.4-.041-.4-.423-.41-.11,0-.22.008-.329.011-.088,0-.176,0-.264,0Z" transform="translate(-66.161 -14.486)" fill="#161515"/><path d="M138.535,290.255c-.049.3-.109.6-.144.9-.085.72-.166,1.44-.233,2.161-.113,1.225-.279,2.449-.306,3.676-.047,2.154-.008,4.309,0,6.464a.8.8,0,0,0,.246.71.813.813,0,0,1,.171,1.164.96.96,0,0,1-1.236.466,1.453,1.453,0,0,1-.886-1.218,6.271,6.271,0,0,1-.112-1.181,74.279,74.279,0,0,1,.244-8.96c.1-.807.248-1.607.348-2.414.079-.631.09-1.272.181-1.9a6.108,6.108,0,0,1,1.168-2.554.98.98,0,0,1,.183-.189.741.741,0,0,1,.852-.151.666.666,0,0,1,.22.878c-.141.391-.354.758-.488,1.152a9.043,9.043,0,0,0-.226,1.012Z" transform="translate(-25.965 -5.985)" fill="#161515"/><path d="M335.244,308.3c-.029,2.085-.505,3.348-1.576,4.345a3.252,3.252,0,0,1-.984.647c-1.994.79-3.28-.474-3.672-2.053a3.459,3.459,0,0,1,.022-1.827c.3-.986.642-1.958,1-2.923a1.684,1.684,0,0,1,1.313-1.252.736.736,0,0,0,.286-.159,1.174,1.174,0,0,1,1.464.027C334.485,306.011,335.325,307.212,335.244,308.3Zm-1.846.9a2.484,2.484,0,0,0-1.172-2.108c-.395-.282-.516-.292-.679.148a21.709,21.709,0,0,0-.74,2.38,1.728,1.728,0,0,0,.419,1.536,1,1,0,0,0,1.712-.076A3.018,3.018,0,0,0,333.4,309.2Z" transform="translate(-147.998 -17.173)" fill="#161515"/><path d="M142.784,292.828a13.21,13.21,0,0,1,1.055-1.167,1.824,1.824,0,0,1,2.724.314,4.077,4.077,0,0,1,.568,1.247,16.119,16.119,0,0,1,.53,3.915c.04,2,.013,4-.007,6.007a2.386,2.386,0,0,1-.2.886.945.945,0,0,1-.7.555.594.594,0,0,1-.779-.5,4.715,4.715,0,0,1-.046-.789c-.012-1.628-.014-3.257-.03-4.885-.005-.483-.046-.967-.078-1.45a.481.481,0,0,0-.078-.158c-.053.03-.126.047-.157.092-.33.493-.864.494-1.358.534a.907.907,0,0,1-.91-1.1,1.2,1.2,0,0,1,1.675-.857c.2.085.412.14.619.209a5.323,5.323,0,0,0-.035-.7,9.29,9.29,0,0,0-.269-1.153,1.741,1.741,0,0,0-.325-.564.362.362,0,0,0-.576-.039,5.113,5.113,0,0,1-.513.414.707.707,0,0,1-.8.107.716.716,0,0,1-.333-.737,1.688,1.688,0,0,1,.037-.194Z" transform="translate(-30.229 -8.539)" fill="#161515"/><path d="M475.6,308.536c.034-.5.094-1.269.134-2.036a2.742,2.742,0,0,1,.49-1.546c.174-.234.089-.327-.12-.436a6.682,6.682,0,0,1-2.223-2.117,1,1,0,0,1,.278-1.534.688.688,0,0,1,.858-.011,4.926,4.926,0,0,1,.686.611,7.134,7.134,0,0,0,2.233,1.816.559.559,0,0,1,.205.159c.152.209.32.179.516.074.638-.339,1.281-.669,1.919-1.008.29-.154.563-.346.863-.475a.58.58,0,0,1,.78.781,2.354,2.354,0,0,1-.58.778,14.387,14.387,0,0,1-1.759,1.149c-.634.347-1.306.627-1.973.91a.63.63,0,0,0-.446.635c-.047,1.317-.127,2.633-.19,3.949a2.708,2.708,0,0,0,.024.392,1.412,1.412,0,0,1-.834,1.425.619.619,0,0,1-.937-.488,5.215,5.215,0,0,1-.034-1.05C475.512,309.941,475.555,309.372,475.6,308.536Z" transform="translate(-239.572 -14.562)" fill="#161515"/><path d="M505.918,307.17a1.006,1.006,0,0,1-.6.995.7.7,0,0,1-.852-.087,1.274,1.274,0,0,0-1.994.536,1.106,1.106,0,0,0,.089.75,10.491,10.491,0,0,0,.8,1.285,3.669,3.669,0,0,1,.719,2.283,2.659,2.659,0,0,1-1.242,2.272,4.584,4.584,0,0,1-1.756.717.644.644,0,0,1-.7-1.017,7.1,7.1,0,0,1,.839-.815,1.045,1.045,0,0,1,.3-.132c.79-.331.915-.608.576-1.4a9.142,9.142,0,0,0-.474-.787,13.8,13.8,0,0,1-.859-1.62,2.311,2.311,0,0,1,.29-2.259,6.732,6.732,0,0,1,1.088-1.224,3.1,3.1,0,0,1,3.047-.528C505.758,306.3,505.917,306.551,505.918,307.17Z" transform="translate(-256.396 -17.884)" fill="#161515"/><path d="M197.74,286.085a7.91,7.91,0,0,1,1.074.271c.754.3,1.5.634,2.23.984a.771.771,0,0,1,.437,1.175.987.987,0,0,1-1.29.572c-1.041-.411-2.089-.8-3.125-1.226a.97.97,0,0,1-.423-.375c-.121-.194-.191-.12-.271,0-.676,1-1.359,2-2.018,3.008-.372.57-.684,1.179-1.063,1.743a1.8,1.8,0,0,1-.629.562.621.621,0,0,1-.959-.632,1.346,1.346,0,0,1,.172-.559c.661-1.141,1.323-2.281,2.015-3.4.287-.466.676-.869.971-1.331.424-.665.8-1.361,1.205-2.039a2.952,2.952,0,0,1,.451-.635.794.794,0,0,1,.923-.079.709.709,0,0,1,.246.877c-.1.289-.256.559-.377.841s-.114.311.22.309h.2Z" transform="translate(-61.193 -3.996)" fill="#161515"/><path d="M235.859,333.013a5.743,5.743,0,0,1-5.027-4.13.575.575,0,0,0-.089-.155,1.392,1.392,0,0,0-.137.135,10.016,10.016,0,0,1-.892,1.129,2.35,2.35,0,0,1-.911.489c-.477.15-.817-.163-.786-.665a1.053,1.053,0,0,1,.52-.872,2.74,2.74,0,0,0,.8-.847,4,4,0,0,1,.758-.811c.4-.315.694-.258.985.161.115.165.185.167.362.112.577-.18.713-.105.956.448a6.6,6.6,0,0,0,1.645,2.277,3.071,3.071,0,0,0,2.1.825c.636,0,1.273-.035,1.909-.065.3-.014.6-.022.761.266a.874.874,0,0,1-.071.936,1.067,1.067,0,0,1-.793.534C237.254,332.869,236.556,332.937,235.859,333.013Z" transform="translate(-84.169 -31.25)" fill="#161515"/><path d="M228.378,310.644c0-.2.011-.4,0-.592a2.163,2.163,0,0,1,1.076-2.046c.313-.21.626-.347.959-.065.159.135.267.047.408-.021a7.639,7.639,0,0,1,1.079-.48,1.27,1.27,0,0,1,1.758.9,4.247,4.247,0,0,1,.143,2.146.935.935,0,0,1-1.413.724.44.44,0,0,0-.34-.037,1.17,1.17,0,0,1-.888.085c-.23-.057-.482-.02-.718-.057-.256-.039-.293.132-.338.3-.036.138,0,.218.162.151a2.388,2.388,0,0,1,1.362-.079.577.577,0,0,1,.5.863,1.3,1.3,0,0,1-.514.641,2.193,2.193,0,0,1-1.6.082c-.291-.08-.35-.37-.322-.653.022-.225-.047-.242-.258-.181-.749.217-1.019.013-1.043-.759-.009-.307,0-.615,0-.922Zm3.6-1.021c.051-.079.114-.146.1-.165-.062-.1-.129-.217-.223-.255-.058-.023-.169.088-.257.139Z" transform="translate(-84.394 -18.761)" fill="#161515"/><path d="M263.765,301.172c0-.725-.016-1.451.007-2.175a6.382,6.382,0,0,1,.151-1.04,1.729,1.729,0,0,1,.644-.971c.336-.283.65-.339.9-.167.327.223.3.538.242.884a12.058,12.058,0,0,0-.174,1.63,43.885,43.885,0,0,0,.489,7.159,5.285,5.285,0,0,0,.473,1.768.9.9,0,0,1-.339,1.1.783.783,0,0,1-1.03-.022,1.776,1.776,0,0,1-.648-1.046,16.811,16.811,0,0,1-.4-2.132c-.167-1.66-.279-3.325-.414-4.989Z" transform="translate(-106.725 -12.039)" fill="#161515"/><path d="M452.286,311.089c-.515.076-1.031.143-1.544.23-.58.1-.962-.293-.778-.861a1.62,1.62,0,0,1,1.172-1.147,4.883,4.883,0,0,1,1.046-.083c.219,0,.438.049.657.056.283.01.567,0,.851,0a4.962,4.962,0,0,0-.325-.835,6.286,6.286,0,0,0-.654-.821.848.848,0,0,1-.028-1.189.9.9,0,0,1,1.156-.357,2.438,2.438,0,0,1,1.078,1.033,8.416,8.416,0,0,1,1.193,3.6c.036.35.089.7.119,1.048a1.231,1.231,0,0,1-.718,1.225.652.652,0,0,1-.978-.523c-.068-.345-.1-.7-.163-1.043-.071-.361-.109-.377-.494-.345-.525.044-1.051.086-1.576.13Z" transform="translate(-224.563 -17.906)" fill="#161515"/><path d="M199.884,324.866a1.172,1.172,0,0,1,.866-1.119c.528-.137,1.077-.2,1.618-.281.628-.1,1.258-.184,1.886-.282.2-.032.342-.095.145-.332a.775.775,0,0,1-.008-.98,3.8,3.8,0,0,0,.451-1.222,6.786,6.786,0,0,1,.492-1.282,1.444,1.444,0,0,1,.5-.5.576.576,0,0,1,.682,0,.617.617,0,0,1,.242.641,4.079,4.079,0,0,1-.119.445,5,5,0,0,0-.194.7,3.671,3.671,0,0,1-.908,2.009.69.69,0,0,0-.083.209,1.131,1.131,0,0,0,.19-.014c.363-.088.721-.2,1.086-.267a.631.631,0,0,1,.766.865,1.08,1.08,0,0,1-.781.819,29.719,29.719,0,0,1-4.539,1.073,6.9,6.9,0,0,0-1.281.259A.724.724,0,0,1,199.884,324.866Z" transform="translate(-66.371 -25.978)" fill="#161515"/><path d="M170.7,285.083a11.341,11.341,0,0,1-.288,1.4,2.327,2.327,0,0,1-.533.813.678.678,0,0,1-.845.124.635.635,0,0,1-.173-.774,3.33,3.33,0,0,0,.036-1.812.948.948,0,0,0-.812-.841c-.537-.079-1.084-.1-1.627-.127-.195-.01-.392.058-.588.06a.574.574,0,0,1-.624-.769,1.611,1.611,0,0,1,.432-.708,1.8,1.8,0,0,1,.748-.385,4.5,4.5,0,0,1,3.016.3,2.077,2.077,0,0,1,1.14,1.6A10.771,10.771,0,0,1,170.7,285.083Z" transform="translate(-44.438 -2.679)" fill="#161515"/><path d="M447.814,303.321a2.733,2.733,0,0,1-.206.593,9.534,9.534,0,0,1-.8,1.2,21.136,21.136,0,0,0-2,3.163,1.456,1.456,0,0,0-.126.558,1.279,1.279,0,0,1-.4.872.87.87,0,0,1-1.027.177.922.922,0,0,1-.477-1,3.645,3.645,0,0,1,.326-.855,20.793,20.793,0,0,1,2.735-4.17c.188-.211.3-.486.5-.694a2.106,2.106,0,0,1,.647-.525C447.427,302.44,447.81,302.732,447.814,303.321Z" transform="translate(-220.026 -15.744)" fill="#161515"/><path d="M228.231,277.693a7.173,7.173,0,0,1,3.382,1.4.775.775,0,0,1,.218.518,1.077,1.077,0,0,1-.585.965.843.843,0,0,1-.919-.078,12.6,12.6,0,0,0-1.454-.6c-.37-.136-.751-.244-1.131-.351-.667-.187-.829-.331-.818-.757a1.134,1.134,0,0,1,.865-1.036C227.916,277.725,228.049,277.718,228.231,277.693Z" transform="translate(-83.478 0)" fill="#161515"/><path d="M143.809,323.044a1.25,1.25,0,0,1,.633-1,.609.609,0,0,1,.883.109.642.642,0,0,0,.489.242c.54.05.749.41.58.926a1.185,1.185,0,0,1-.787.822,5.369,5.369,0,0,1-.638.156C144.272,324.428,143.778,323.99,143.809,323.044Z" transform="translate(-30.892 -27.972)" fill="#161515"/><path d="M144.155,312.667c-.665.044-.974-.323-.83-.973a1.059,1.059,0,0,1,1.435-.9,5.85,5.85,0,0,0,.65.066.626.626,0,0,1,.621.8,1.117,1.117,0,0,1-.96.938C144.767,312.636,144.46,312.646,144.155,312.667Z" transform="translate(-30.565 -20.913)" fill="#161515"/></g><line x2="33" y2="30" transform="translate(458.5 2713.5)" fill="none" stroke="#161515" stroke-linecap="round" stroke-width="2"/><line x1="13" y2="40" transform="translate(644.5 2672.5)" fill="none" stroke="#161515" stroke-linecap="round" stroke-width="2"/></g></g></svg>