<?xml version="1.0" encoding="UTF-8" standalone="no"?>
<svg
   version="1.1"
   viewBox="-10 0 948 938"
   id="svg2017"
   xmlns="http://www.w3.org/2000/svg"
   xmlns:svg="http://www.w3.org/2000/svg">
  <defs
     id="defs2021" />
  <g
     transform="matrix(1 0 0 -1 0 750)"
     id="g2015">
    <path
       fill="currentColor"
       d="M626 676l1 -1q6 -9 6 -16q0 -9 -10 -18l-4 -1q-35 5 -56 5q-15 0 -22 -1q-28 -4 -148 -46q-22 -9 -52 -9q-19 0 -47 5q-18 3 -18 6q0 2 12 5q26 2 130 32q10 3 21 6.5t24 6.5l22 7q39 11 51 25q16 14 32 14q6 0 18 -4q20 -4 40 -16zM498 514q-6 6 -6 -30v-27q3 -24 3 -44 q96 15 181 22q2 3 18 19h1.5t2.5 3q11 6 21 6t19 -6q13 -11 66 -37q25 -11 25 -22q0 -3 -3 -8q0 -5 -3 -8q-7 -10 -14 -10q-5 0 -9 4q-11 1 -31 12q-22 21 -60 21q-14 0 -29 -3q-93 -5 -182 -25q3 -99 3 -179q0 -111 -6 -182q0 -62 -21 -80q-5 -8 -15 -8q-5 0 -11 3 q-11 13 -33 23l-30 20q-21 8 -45 26.5t-58 48.5q-3 3 -7.5 6.5t-7 7t0.5 3.5q3 2 14 -3t18 -9q52 -34 86.5 -50t59.5 -16q26 0 26 28q1 32 1 98q0 131 -7 257q-77 -16 -178 -46q-23 -5 -43 -8.5t-33 -2.5l-67 8q-2 0 -5.5 0.5t-2.5 2.5t4 5l4 1q56 5 115 19q16 5 27.5 7.5 t18.5 4.5q25 6 57 16l99 25q0 49 -4 80.5t-11 39.5q-7 11 -31 26q0 1 -3 3q-2 2 -6.5 5.5t-4 4.5t5.5 1q12 2 18 2q21 0 36 -9t32 -27q5 -9 4 -19z"
       id="path2013"
       style="fill:none;stroke:#e10000;stroke-opacity:1;stroke-width:2;stroke-miterlimit:4;stroke-dasharray:none" />
    <path
       style="fill:none;stroke:#000000;stroke-width:1px;stroke-linecap:butt;stroke-linejoin:miter;stroke-opacity:1"
       d="m 259.24074,602.35185 93.05556,-4.96296 191.07407,59.55555 18.61111,17.37037 85.61111,-22.33333 L 619,640 v 0"
       id="path2269" />
    <path
       style="fill:none;stroke:#000000;stroke-width:1px;stroke-linecap:butt;stroke-linejoin:miter;stroke-opacity:1"
       d="M 114.07407,341.7963 224.5,329.38889 l 308.94444,76.92592 173.70371,16.12963 7.44444,14.88889 L 826,390 769,388 v 0"
       id="path2271" />
    <path
       style="fill:none;stroke:#000000;stroke-width:1px;stroke-linecap:butt;stroke-linejoin:miter;stroke-opacity:1"
       d="M 408,567 465.2037,546.51852 498,514 471.40741,517.98148 485.05556,99.85185 478.85185,-24.22222 456.51852,-37.87037 215.81481,103.57407"
       id="path2275" />
  </g>
</svg>
