<?xml version="1.0" encoding="UTF-8" standalone="no"?>
<svg
   version="1.1"
   viewBox="-10 0 948 938"
   id="svg2306"
   xmlns="http://www.w3.org/2000/svg"
   xmlns:svg="http://www.w3.org/2000/svg">
  <defs
     id="defs2310" />
  <g
     transform="matrix(1 0 0 -1 0 750)"
     id="g2304">
    <path
       fill="currentColor"
       d="M890.5 346.5q1.5 -5.5 -0.5 -10.5q-6 -6 -19 -6q-20 0 -43 17q-28 23 -70 23q-14 0 -22 -1h-9q-3 -246 57 -420q1 -4 1 -12t-2 -11q-6 -6 -12 -6q-5 0 -12 5q-24 17 -27 46q-5 14 -30 35q-23 27 -53 81q-4 9 -4 17q0 7 4 7q6 0 15 -10q28 -34 68 -68q2 -1 2 0.5v6.5 q0 7 -3 22q-23 196 -26 306q-10 -3 -28 -3q-15 -3 -29 -3q1 -23 1 -66q0 -123 -19 -177q-20 -73 -90 -130l4 -8q5 -7 5 -14q1 -5 1 -14t-2 -12q-4 -3 -9 -3q-7 0 -15 6q-23 19 -28 41q-6 16 -18 31q-28 20 -48 84q-4 11 -4 17q0 5 3 5q5 0 15 -14q19 -21 50 -45q3 -3 4 -3 q2 1 1 6q-17 163 -20 272l-21 -4q-16 -3 -22 -6v-31q0 -271 -153 -339q-8 -2 -12 -2q-7 0 -10 5v2q0 8 14 16q145 96 141 347q-22 -4 -44 -11q-37 -14 -57 -14q-8 0 -16 3q-11 6 -9 11q-8 -6 -24 -20q-6 -52 -6 -123l107 124q17 18 22 18q3 0 3 -3q0 -7 -11 -24 q-109 -158 -213 -247q-40 -29 -68 -29q-8 0 -12 1l-1 1q-9 5 -9 10q0 6 10 6q53 20 136 109q0 44 -3 53q-3 5 -3 9q0 10 12 16q4 4 4 55q1 3 1 7q-31 -24 -74 -24q-14 0 -14 9q0 6 12 11q43 26 78 48q4 37 4 70q0 39 -7 53q-1 3 -1 8q0 8 6 8q5 0 10 -4q3 -5 13 -15 q9 -10 12 -16t-2 -9q-6 -18 -6 -73q28 16 48 19q11 0 15 -10q1 -1 1 -4q0 -5 -6 -10q-15 -9 -27 -19q1 1 4 1q60 18 114 22q0 38 -13 145h2l-2 12q-2 18 -17 37t-39 17q19 7 35 7q6 0 18 -2.5t21 -0.5q13 0 19 -10q1 -2 1 -7q0 -8 -6 -14q-3 -1 -3 -10q0 -7 1 -12 q3 -90 3 -158h2q17 7 45 9l-1 51q0 79 8 213q0 13 -13 10q-15 -4 -36 -18l-10 -7q-17 -19 -40 -14q-16 0 -13 11l7 10q80 42 99 43q17 6 74 -44q7 -8 7 -15q0 -4 -4 -7l-3 -10h-9q-30 -14 -30 -37q-13 -127 -13 -181l68 10l24 3q23 2 32 4q-2 57 -8 122h1l-1 12l-28 54 q25 0 42 4h2q21 -4 21 -18q0 -6 -5 -14q-8 0 -5 -22v-136q20 5 57 10q-2 70 -2 113q0 38 2 128q0 10 -3 13q-27 -4 -53 -28q-18 -18 -44 -13q-4 0 -7 2.5t-3 6.5q0 5 8 11q68 37 95 43q17 8 75 -43q7 -10 7 -16q-5 -11 -16 -16q-27 -14 -30 -38q-3 -94 -10 -162l24 2 q2 24 24 24q12 0 25 -5q63 -32 88 -57q4 -3 5.5 -8.5zM127 509q-3 2 -3 4q0 7 10 11h1q58 12 114 34q22 15 24 20q3 13 16 13q2 0 10 -2q6 0 20 -4q17 -7 21 -11t8 -17h-11q-6 2 -13 2q-32 0 -103 -36q-35 -18 -65 -18q-7 0 -21 2q-5 0 -8 2zM631 501q-7 54 -8 54 q-2 0 2 -55zM412 490l-2 9q-1 0 -1 -10zM629 358q-48 -2 -124 -16q-1 -21 -1 -61q0 -161 29 -271q60 49 72 112q20 62 24 236z"
       id="path2302"
       style="fill:none;stroke:#e80000;stroke-opacity:1;stroke-width:2;stroke-miterlimit:4;stroke-dasharray:none" />
    <path
       style="fill:none;stroke:#000000;stroke-width:1px;stroke-linecap:butt;stroke-linejoin:miter;stroke-opacity:1"
       d="m 92.98148,522.94444 73.20371,-12.4074 39.7037,14.88889 88.09259,38.46296 L 273,578 337,557"
       id="path2641" />
    <path
       style="fill:none;stroke:#000000;stroke-width:1px;stroke-linecap:butt;stroke-linejoin:miter;stroke-opacity:1"
       d="M 124,252.46296 184.7963,267.35185 314,363"
       id="path2643" />
    <path
       style="fill:none;stroke:#000000;stroke-width:1px;stroke-linecap:butt;stroke-linejoin:miter;stroke-opacity:1"
       d="M 202.16667,486.96296 272,417 259.24074,496.88889 248.07407,148.24074"
       id="path2647" />
    <path
       style="fill:none;stroke:#000000;stroke-width:1px;stroke-linecap:butt;stroke-linejoin:miter;stroke-opacity:1"
       d="M 37.148148,42.77778 112.83333,21.68519 234.42593,113.5 415,343"
       id="path2651" />
    <path
       style="fill:none;stroke:#000000;stroke-width:1px;stroke-linecap:butt;stroke-linejoin:miter;stroke-opacity:1"
       d="M 299,589 405.64815,535.35185 425.5,374.05556 421.77778,248.74074 413.09259,165.61111 379.59259,70.07407 325,0.59259 226.98148,-61.44444"
       id="path2653" />
    <path
       style="fill:none;stroke:#000000;stroke-width:1px;stroke-linecap:butt;stroke-linejoin:miter;stroke-opacity:1"
       d="m 348,557 42,34 51.62963,36.16667 21.09259,8.68518 34.74074,-2.48148 22.33334,-27.2963 L 560,589 508.62963,583.74074 492.5,397.62963 l 2.48148,-192.31482 7.44445,-95.53703 12.4074,-78.16667 8.68519,-70.72222 -54.59259,88.09259 -18.61112,22.33333 -37.22222,63.27778"
       id="path2655" />
    <path
       style="fill:none;stroke:#000000;stroke-width:1px;stroke-linecap:butt;stroke-linejoin:miter;stroke-opacity:1"
       d="M 557,579 621.53704,546.51852 631,501 633.94444,431.12963 635.18519,321.94444 632.7037,218.96296 622.77778,147 606.64815,88.68519 568.18519,26.64815 496,-15"
       id="path2657" />
    <path
       style="fill:none;stroke:#000000;stroke-width:1px;stroke-linecap:butt;stroke-linejoin:miter;stroke-opacity:1"
       d="m 560,589 76.42593,36.92593 21.09259,11.16666 18.61111,11.16667 L 727,649.5 l 14.88889,-24.81481 -12.40741,-29.77778 -14.88889,-105.46297 1.24074,-157.57407 13.64815,-201 22.33333,-116.62963 9.92593,-52.11111 -3.72222,-19.85185 L 729.48148,3.07407 679.85185,67.59259 622.77778,147"
       id="path2659" />
    <path
       style="fill:none;stroke:#000000;stroke-width:1px;stroke-linecap:butt;stroke-linejoin:miter;stroke-opacity:1"
       d="m 266,295 57.75926,15.77778 57.07407,16.12963 181.14815,33.5 223.33333,23.57407 L 760.5,415 910.62963,314.5"
       id="path2661" />
  </g>
</svg>
